<svg id="Layer_1" data-name="Layer 1" xmlns="http://www.w3.org/2000/svg" viewBox="0 0 289.14 360.97"><defs><style>.cls-1{fill:#c9d63a;}</style></defs><path class="cls-1" d="M152.53,158a19.1,19.1,0,1,1,19.12-19.12A19.12,19.12,0,0,1,152.53,158Zm0-31.75a12.65,12.65,0,1,0,12.67,12.63A12.65,12.65,0,0,0,152.53,126.29Zm26.85,60.55v-7.5a17.34,17.34,0,0,0-3-9.8,38.81,38.81,0,1,0-55.24-7.77H106.37a27.23,27.23,0,0,0,1.37-8.37,27.66,27.66,0,1,0-53.95,8.37H53.3a17.59,17.59,0,0,0-17.56,17.57v58.2a17.6,17.6,0,0,0,17.56,17.6H79.64c1.88,10.29,12.62,18.43,26.13,19.74V291a12.8,12.8,0,0,0-9.18,6.17L62.66,354.48a3.21,3.21,0,0,0,1.13,4.41,3.15,3.15,0,0,0,1.64.45,3.2,3.2,0,0,0,2.77-1.58l33.94-57.32a6.34,6.34,0,0,1,3.63-2.85v60.16a3.22,3.22,0,0,0,6.44,0V299.22a6.09,6.09,0,0,1,.87,1l36.75,57.61a3.23,3.23,0,0,0,5.44-3.47l-36.75-57.6a12.61,12.61,0,0,0-6.31-5.06V275c14.09-.92,25.42-9.24,27.36-19.85h22.25a17.6,17.6,0,0,0,17.56-17.6V228l36.48,24.8,36.39,15.4V147.81L216.48,162Zm-26.85-80.3a32.41,32.41,0,0,1,0,64.81,33.2,33.2,0,0,1-6.07-.57,32.41,32.41,0,0,1,6.07-64.24ZM80.08,132.19a21.23,21.23,0,0,1,21.21,21.21,21.19,21.19,0,0,1-39.85,10h0a20.85,20.85,0,0,1-2.56-10A21.23,21.23,0,0,1,80.08,132.19Zm29.53,136.45c-11.58,0-21.26-5.81-23.41-13.5H133C130.86,262.83,121.18,268.64,109.61,268.64Zm52.21-19.95H53.3a11.15,11.15,0,0,1-11.12-11.15v-58.2A11.13,11.13,0,0,1,53.3,168.22h3.47c.17.28.39.52.57.79.31.45.62.89.95,1.32s.84,1,1.28,1.53.72.79,1.1,1.17,1,.91,1.47,1.34.8.69,1.22,1,1.09.77,1.65,1.14.86.57,1.3.83c.6.34,1.22.64,1.84.93.45.22.89.45,1.35.65.67.27,1.35.49,2,.71.45.15.89.32,1.35.44.77.21,1.56.35,2.35.49.4.07.79.17,1.19.23a26.84,26.84,0,0,0,7.31,0c.41-.06.8-.16,1.21-.24.78-.13,1.56-.27,2.32-.47.48-.13.94-.31,1.41-.46.66-.22,1.33-.43,2-.7.49-.2,1-.44,1.43-.68s1.18-.56,1.75-.88.94-.59,1.4-.89,1-.69,1.54-1.07.89-.72,1.32-1.09.92-.81,1.36-1.25.8-.83,1.19-1.26.81-.94,1.2-1.43.68-.91,1-1.39c.18-.26.39-.5.56-.77H127c.32.29.67.53,1,.81s.83.69,1.27,1,1.06.76,1.61,1.13.88.6,1.33.88,1.14.66,1.71,1,.92.52,1.4.75,1.2.55,1.81.81.94.43,1.42.62c.64.24,1.28.44,1.93.65.47.16.95.33,1.43.47.68.19,1.38.34,2.07.49.46.11.92.23,1.39.32.77.14,1.56.24,2.34.33.4,0,.79.13,1.19.16,1.19.11,2.39.17,3.59.17a38.31,38.31,0,0,0,4.43-.27l.65-.07a40.23,40.23,0,0,0,4.11-.77l.76-.2a39.42,39.42,0,0,0,4-1.28L167,175a37,37,0,0,0,3.94-1.84l.05,0a11,11,0,0,1,1.9,6.23v11.82l-.06,0,.06,1.72v44.62A11.14,11.14,0,0,1,161.82,248.69Zm84,9.75L227,250.52V165c0-.08,0-.15,0-.22l18.83-7.48Zm-25.23-91.13v80.5l-1.36-.57-38.83-26.4-.94-26.29,39.74-26.68ZM58.78,96l30.76-5.68-23.22-21,4.1-31L43.31,53.94,15.08,40.46l6.47,30.61L0,93.75l31.11,3.3L46,124.55ZM35.16,91,13.67,88.72,28.55,73.05,24.08,51.9l19.51,9.32L62.32,50.43,59.48,71.86,75.53,86.34,54.27,90.27,45.46,110Zm93-33.44,14.1,27.92L155.82,57.3l30.92-4.79-22.6-21.63,5-30.88L141.58,14.81,113.76.52l5.57,30.78L97.14,53.35Zm-5.71-45.34,19.22,9.88,19-10.24L157.23,33.2l15.62,14.94-21.36,3.3-9.38,19.47-9.75-19.29L111,48.72l15.33-15.23ZM265.91,69.35l4.1-31L242.9,53.94,214.67,40.46l6.47,30.61L199.6,93.75l31.1,3.3,14.92,27.5L258.37,96l30.77-5.68Zm-12,20.92L245.06,110,234.75,91l-21.49-2.28,14.89-15.67L223.68,51.9l19.5,9.32,18.73-10.79-2.83,21.43,16,14.48ZM129.75,199.85H84.56a4.84,4.84,0,0,0,0,9.67h45.19a4.84,4.84,0,0,0,0-9.67Z"/></svg>